<?xml version="1.0" standalone="no"?>
<!DOCTYPE svg PUBLIC "-//W3C//DTD SVG 20010904//EN"
 "https://www.w3.org/TR/2001/REC-SVG-20010904/DTD/svg10.dtd">
<svg version="1.0" xmlns="https://www.w3.org/2000/svg"
 width="512.000000pt" height="512.000000pt" viewBox="0 0 512.000000 512.000000"
 preserveAspectRatio="xMidYMid meet">
<metadata>
Created by potrace 1.14, written by Peter Selinger 2001-2017
</metadata>
<g transform="translate(0.000000,512.000000) scale(0.100000,-0.100000)"
fill="#000000" stroke="none">
<path d="M388 5100 c-23 -13 -46 -36 -58 -60 -19 -38 -20 -58 -20 -521 0 -480
0 -481 22 -521 25 -45 80 -78 128 -78 50 0 107 35 130 80 19 37 20 58 20 430
l0 390 385 0 c324 0 391 2 423 15 79 32 113 125 74 202 -42 82 -14 78 -572 80
-478 2 -496 2 -532 -17z"/>
<path d="M3695 5103 c-38 -21 -49 -32 -70 -73 -22 -43 -16 -106 15 -148 44
-60 60 -62 485 -62 l385 0 0 -391 c0 -377 1 -393 21 -428 11 -20 31 -44 43
-53 32 -24 102 -32 140 -17 40 17 83 65 90 102 3 16 6 241 6 499 0 465 0 471
-22 509 -43 78 -14 74 -568 76 -441 2 -498 1 -525 -14z"/>
<path d="M1905 4498 c-38 -14 -69 -45 -85 -86 -13 -34 -8 -170 9 -214 5 -13 9
-25 9 -28 9 -120 165 -343 299 -428 48 -30 49 -33 28 -66 -33 -49 -55 -158
-55 -263 l0 -103 -102 0 c-168 0 -263 -35 -363 -134 -37 -37 -71 -82 -85 -113
l-24 -53 -100 0 c-123 0 -176 20 -206 81 -19 36 -20 60 -20 371 -1 367 -1 370
-65 420 -42 32 -128 33 -170 0 -62 -49 -60 -36 -63 -412 -3 -240 0 -362 8
-400 20 -90 58 -160 125 -226 100 -99 195 -134 363 -134 l102 0 0 -150 0 -150
-231 0 c-147 0 -246 -4 -270 -12 -81 -24 -121 -126 -81 -205 39 -76 45 -78
330 -81 l252 -3 1 -112 c0 -62 2 -129 5 -150 l5 -37 -103 -1 c-116 -1 -133 -3
-203 -25 -120 -38 -223 -136 -276 -265 -22 -52 -23 -67 -27 -421 -3 -351 -2
-368 17 -406 24 -48 57 -71 114 -78 63 -9 122 23 148 79 17 39 19 69 19 370 0
373 2 382 78 425 38 21 51 22 183 20 130 -3 143 -5 153 -23 169 -306 429 -498
756 -559 87 -17 308 -15 385 3 328 77 566 258 731 556 10 18 23 20 150 23 157
3 194 -7 235 -62 24 -31 24 -32 29 -381 3 -192 10 -359 15 -370 34 -73 138
-107 205 -66 79 49 81 57 80 450 -1 358 -5 391 -51 488 -30 64 -135 166 -201
196 -84 39 -120 45 -261 46 l-99 1 6 42 c3 24 5 91 5 151 l1 107 243 0 c265 1
281 4 328 63 52 67 26 177 -51 217 -36 18 -58 20 -280 20 l-240 0 0 150 0 150
98 1 c115 1 139 4 209 29 122 43 224 149 268 278 23 65 23 78 24 422 0 317 -1
358 -17 387 -55 102 -195 110 -254 14 -22 -35 -23 -44 -28 -386 -5 -348 -5
-351 -28 -380 -41 -53 -76 -64 -192 -65 l-105 0 -24 52 c-20 44 -97 132 -154
176 -57 44 -171 72 -294 72 l-103 0 -1 100 c-1 55 -2 103 -3 108 -1 4 -5 25
-10 47 -4 22 -20 64 -34 93 -25 51 -25 54 -8 64 21 12 120 92 144 117 121 123
195 291 208 468 6 76 4 86 -20 126 -26 46 -74 77 -119 77 -33 0 -88 -20 -109
-40 -25 -23 -48 -84 -48 -127 0 -50 -22 -129 -51 -189 -49 -98 -185 -209 -284
-229 -171 -36 -313 4 -430 120 -85 83 -118 158 -135 297 -10 89 -25 116 -79
146 -42 24 -79 27 -126 10z m713 -903 c22 -9 50 -30 63 -48 20 -28 24 -46 27
-134 l4 -103 -151 0 -151 0 0 90 c0 70 4 99 19 128 37 72 111 98 189 67z m609
-603 c17 -9 42 -30 55 -47 l23 -30 2 -520 c3 -563 2 -577 -53 -714 -65 -165
-207 -317 -364 -393 -62 -29 -143 -58 -165 -58 -13 0 -15 89 -15 680 0 519 -3
686 -12 707 -49 109 -185 123 -260 28 l-23 -30 -3 -692 c-2 -567 -5 -693 -16
-693 -17 0 -110 32 -168 58 -63 29 -175 116 -231 179 -63 72 -119 172 -153
273 l-29 85 0 545 c0 525 1 546 20 574 10 16 37 37 60 47 37 17 80 19 670 18
575 0 633 -1 662 -17z"/>
<path d="M393 1181 c-30 -14 -48 -31 -62 -60 -20 -39 -21 -55 -21 -523 1 -533
-1 -518 65 -570 l29 -23 493 -3 c558 -3 543 -5 588 73 30 51 32 93 4 146 -14
29 -32 46 -62 60 -39 17 -70 19 -429 19 l-388 0 0 390 c0 375 -1 392 -21 431
-21 43 -80 79 -129 79 -14 0 -44 -9 -67 -19z"/>
<path d="M4588 1179 c-23 -12 -46 -35 -58 -59 -19 -37 -20 -58 -20 -430 l0
-390 -392 0 -391 0 -42 -25 c-30 -17 -47 -36 -59 -65 -22 -55 -20 -86 8 -134
43 -74 21 -71 580 -71 l501 0 32 24 c63 47 63 51 63 576 0 488 -1 504 -40 547
-21 23 -83 48 -117 48 -15 -1 -45 -10 -65 -21z"/>
</g>
</svg>
